PathFileType	4	(X/Y/Z)	C:\Users\u0145647\OneDrive - KU Leuven\KU Leuven\c3d2osim\CP4\T0\Data\Processed\ViconC3D_CP4_2\CP4_T0_07_gapFilled.trc
DataRate	CameraRate	NumFrames	NumMarkers	Units	OrigDataRate	OrigDataStartFrame	OrigNumFrames
100.000000	100.000000	11	47	mm	100.000000	547	728
Frame#	Time	C7			T10			CLAV			STRN			LSHO			RSHO			RBAK			LASI			RASI			LPSI			RPSI			LLAT			RLAT			LF1			LF2			LF3			LTHI			LKNE			LMEK			RF1			RF2			RF3			RTHI			RKNE			RMEK			LT1			LT2			LT3			LTIB			LANK			LMM			RT1			RT2			RT3			RTIB			RANK			RMM			LHEE			LSTL			LLCA			LTOE			LCM5			RHEE			RSTL			RLCA			RTOE			RCM5
		X1	Y1	Z1	X2	Y2	Z2	X3	Y3	Z3	X4	Y4	Z4	X5	Y5	Z5	X6	Y6	Z6	X7	Y7	Z7	X8	Y8	Z8	X9	Y9	Z9	X10	Y10	Z10	X11	Y11	Z11	X12	Y12	Z12	X13	Y13	Z13	X14	Y14	Z14	X15	Y15	Z15	X16	Y16	Z16	X17	Y17	Z17	X18	Y18	Z18	X19	Y19	Z19	X20	Y20	Z20	X21	Y21	Z21	X22	Y22	Z22	X23	Y23	Z23	X24	Y24	Z24	X25	Y25	Z25	X26	Y26	Z26	X27	Y27	Z27	X28	Y28	Z28	X29	Y29	Z29	X30	Y30	Z30	X31	Y31	Z31	X32	Y32	Z32	X33	Y33	Z33	X34	Y34	Z34	X35	Y35	Z35	X36	Y36	Z36	X37	Y37	Z37	X38	Y38	Z38	X39	Y39	Z39	X40	Y40	Z40	X41	Y41	Z41	X42	Y42	Z42	X43	Y43	Z43	X44	Y44	Z44	X45	Y45	Z45	X46	Y46	Z46	X47	Y47	Z47

547	5.46	NaN	NaN	NaN	NaN	NaN	NaN	2708.1	1362.1	-117.24	2748.9	1215.7	-127.74	2654.2	1405.8	-330.28	2642.3	1380.5	80.302	2558	1343.4	9.5574	2759.6	926.76	-218.15	2724	928.36	-22.258	2580.8	959.49	-192.46	2566.7	968.38	-118.93	2707.2	995.6	-282.51	2656.7	997.05	10.307	2806.4	684.61	-301.41	2775.6	720.19	-301.75	2775.9	668.56	-308.62	NaN	NaN	NaN	2862.4	486.96	-279.66	NaN	NaN	NaN	2670.1	645.53	-3.6869	2690.4	678.31	4.4562	2630.9	677.63	-1.9963	2677.9	579.59	26.285	2710.3	464.52	-56.832	NaN	NaN	NaN	2742.9	353.48	-301.57	2801.9	367.49	-289.87	2757.7	395.35	-297.1	2765	266.57	-327.83	2626	142.37	-281.15	2649.8	145.55	-196.21	2658.7	322.57	-40.525	2690.2	359.75	-58.051	2645.8	373.55	-35.617	2662.8	247.21	-3.2839	2588.7	85.485	-62.052	2590.7	103.39	-148.67	2576.5	145.87	-232.65	2635	119.27	-199.77	2619.6	115.76	-276.31	2729.2	64.489	-240.45	2715.4	54.992	-282.23	2532.2	88.234	-96.777	2584.1	66.807	-144.41	2592.4	60.357	-66.447	2707.4	50.367	-110.01	2688.7	35.475	-54.155
548	5.47	NaN	NaN	NaN	NaN	NaN	NaN	2718.1	1362.7	-117.7	2758.3	1216.1	-128.04	2664	1406.2	-330.71	2652.8	1381.4	79.842	2567.9	1344.1	9.4673	2768.7	927.51	-218.01	2731.6	928.92	-22.461	2590	959.48	-193.12	2575.2	969.39	-120.58	2716.8	996.16	-282.48	2664.3	997.7	9.4251	2819.2	687.44	-301.11	2787.6	722.56	-301.95	2788.9	670.84	-308.52	NaN	NaN	NaN	2879.3	491.46	-277.12	NaN	NaN	NaN	2676.2	646.12	-4.0995	2697.3	678.63	3.8094	2637.2	678.28	-2.7528	2683.7	580.2	26.059	2715.4	464.73	-56.92	NaN	NaN	NaN	2765.6	352.48	-301	2823.8	369.56	-288.74	2778.8	395.26	-296.8	2792.9	266.98	-327.71	2659.1	136.23	-282.75	2680.8	139.48	-197.43	2662.1	323.39	-40.51	2694.8	360.16	-57.4	2648.7	374.04	-35.834	2665.5	248.04	-3.2384	2589.9	86.93	-61.644	2594	103.45	-147.29	2608.9	136.87	-233.9	2668.5	112.71	-201.51	2654.1	109.27	-278.57	2765.9	63.528	-242.24	2752.6	54.019	-284.37	2534	90.009	-95.963	2585.7	68.155	-143.66	2592.6	61.294	-65.904	2707.7	50.331	-109.77	2689.4	35.466	-53.772
549	5.48	NaN	NaN	NaN	NaN	NaN	NaN	2727.9	1363	-118.15	2767.8	1216.3	-128.42	2674.2	1406.5	-331.22	2663	1382.1	79.393	2577.8	1344.8	8.8781	2777.8	928.03	-217.87	2739.2	929.25	-22.647	2598.9	960.36	-194.84	2583.8	970.4	-122.23	2727.1	996.8	-282.96	2672.1	998.59	8.8486	2831.6	690.02	-300.62	2799.5	724.74	-302.08	2801.7	672.99	-308.29	NaN	NaN	NaN	2895.4	495.61	-274.7	NaN	NaN	NaN	2682.5	646.59	-4.5661	2705	678.97	3.2447	2643.5	678.93	-3.5092	2690.8	581.36	26.426	2720.8	464.89	-56.916	NaN	NaN	NaN	2789	351.44	-300.91	2845.6	371.36	-287.24	2799.7	394.67	-296.2	2821.1	267.2	-326.32	2692.4	129.87	-284.08	2713.1	133.89	-198.64	2666.4	323.85	-40.426	2698.7	360.57	-57.412	2653.8	375.59	-35.629	2667.8	248.49	-3.1298	2590.9	88.444	-61.136	2593.3	106.12	-147.47	2642.1	127.53	-236.66	2702.2	106.22	-203.01	2689	102.98	-280.16	2802.8	63	-243.28	2790.3	53.513	-285.96	2534.7	92.147	-95.076	2586.2	69.91	-144.1	2593.2	62.797	-65.316	2708.8	50.765	-109.62	2689	35.487	-53.706
550	5.49	NaN	NaN	NaN	NaN	NaN	NaN	2737.8	1363.2	-118.64	2777.3	1216.4	-128.77	2684.1	1406.7	-331.77	2673	1382.5	78.86	2587.8	1346.1	8.211	2786.8	928.37	-217.72	2746.8	929.49	-22.875	2607.9	961.08	-196.1	2592.2	971.4	-124.09	2736.2	997.04	-283.01	2679.8	999.07	8.1531	2843.9	692.38	-299.97	2811.2	726.7	-302.01	2814.3	675.14	-308.27	NaN	NaN	NaN	2911	499.43	-272.38	NaN	NaN	NaN	2688.5	646.8	-5.1487	2711.7	678.77	2.6114	2649.9	679.42	-4.214	2695	580.81	25.602	2726.2	465.04	-56.969	NaN	NaN	NaN	2813	349.99	-300.89	2867.3	373.03	-285.37	2821.1	393.93	-296.01	2849.2	267.42	-324.93	2726.4	124.15	-285.25	2746.3	129.06	-199.49	2670	324.83	-40.667	2702.8	360.76	-57.457	2657.6	376.01	-36.186	2670.9	249.31	-3.077	2591.3	89.729	-60.58	2594.5	107.63	-147.03	2678.1	117.94	-238.06	2736.8	100.48	-204.18	2724.5	97.182	-281.33	2839.6	62.705	-243.66	2827.9	53.002	-286.54	2535.8	94.246	-95.049	2586.7	70.908	-143.6	2593.7	63.983	-65.415	2709.4	50.759	-109.57	2689.4	35.605	-53.573
551	5.5	NaN	NaN	NaN	NaN	NaN	NaN	2747.7	1363.3	-119.15	2786.9	1216.3	-129.11	2694.5	1406.7	-332.41	2682.9	1382.7	78.301	2597.3	1345.8	7.6367	2795.9	928.52	-217.55	2754.5	929.52	-23.087	2617	961.42	-197.31	2600.8	971.08	-124.8	2745.9	997.17	-283.27	2687.7	999.36	7.5661	2856	694.46	-299.16	2822.7	728.51	-301.84	2826.5	676.77	-307.76	NaN	NaN	NaN	2926.5	503.18	-270.16	NaN	NaN	NaN	2695.3	647.12	-5.7406	2718.5	678.57	1.9781	2656.3	679.9	-4.9189	2700.9	580.98	25.055	2731.4	464.57	-57.397	NaN	NaN	NaN	2836.3	348.55	-300.53	2889.1	374.38	-283.61	2842.1	392.78	-295.5	NaN	NaN	NaN	2760.9	118.97	-286.2	2778.7	124.41	-199.78	2674	325.54	-41.078	2706.9	360.8	-57.679	2661.8	376.46	-36.569	2673.8	249.8	-3.3475	2592.2	90.984	-60.875	2595.3	108.92	-146.91	2709.7	110.8	-239.62	2770.9	95.297	-204.93	2760.2	91.81	-282.45	2876.3	62.881	-243.4	2865.7	53.739	-286.63	2536.9	96.23	-95.001	2587.5	72.589	-143.33	2594.2	65.432	-64.802	2709.7	50.773	-109.49	2689.6	35.735	-53.539
552	5.51	NaN	NaN	NaN	NaN	NaN	NaN	2757.6	1363.1	-119.69	2796.6	1216	-129.42	2704.8	1406.6	-333.06	2692.7	1382.7	77.703	2607.1	1346.5	7.3056	2805.1	928.54	-217.36	2762.2	929.49	-23.241	2626.1	961.75	-197.67	2609.3	971.64	-126.2	2755.5	997.11	-283.52	2695.5	999.45	6.9211	2867.7	696.9	-298.28	2834	730.14	-301.56	2838.3	678.23	-308.02	NaN	NaN	NaN	2941.5	506.6	-268.53	NaN	NaN	NaN	2701.5	647.1	-6.3502	2725.2	678.38	1.3448	2662.9	680.27	-5.6785	2708.4	581.81	24.763	2736.9	464.45	-57.783	NaN	NaN	NaN	2859.4	346.78	-300.15	2910.4	375.68	-281.85	2863.1	391.54	-295.34	NaN	NaN	NaN	2795.4	114.19	-287.02	2811.1	120.15	-199.87	2677.1	325.5	-41.026	2711.1	360.84	-57.9	2666.8	377.73	-37.078	2676.7	250.3	-3.6582	2593	92.214	-60.648	2596.9	109.48	-146.89	2743.7	103.56	-241.26	2804.7	90.442	-205.38	2795.6	86.759	-282.43	2912.6	63.459	-242.49	2902.8	54.533	-285.92	2537.5	98.007	-94.918	2588.2	73.648	-143.08	2595.4	67.251	-64.363	2709.9	50.787	-109.44	2689.9	35.908	-53.617
553	5.52	NaN	NaN	NaN	NaN	NaN	NaN	2767.5	1362.8	-120.29	2806.2	1215.5	-129.65	2715.3	1406.5	-333.75	2702.5	1382.4	77.07	2616.9	1347	6.4934	2814.4	928.42	-217.07	2770	929.33	-23.364	2635.3	961.56	-199.02	2617.9	972.2	-127.59	2765.2	996.88	-283.73	2703.4	999.56	6.3773	2879.2	698.66	-297.29	2845.1	731.58	-301.22	2850.3	679.6	-306.06	NaN	NaN	NaN	2955.6	509.57	-266.95	NaN	NaN	NaN	2707.5	646.77	-7.0847	NaN	NaN	NaN	2669.3	680.6	-6.2344	2714	581.27	24.151	2742.4	464.14	-58.124	NaN	NaN	NaN	2882.9	345.04	-299.79	2931.5	376.94	-280.29	2884.1	390.28	-295.51	NaN	NaN	NaN	2830.1	110.34	-287.09	2843.9	116.58	-199.63	2680.5	325.67	-41.509	2715.3	360.78	-58.267	2671	377.82	-37.508	2679.6	250.69	-4.0458	2594	93.533	-60.918	2597.8	111.04	-146.98	2777.9	96.727	-241.84	2838.8	86.402	-204.95	2831.5	82.718	-283.04	2948.5	64.707	-241.22	2939.9	56.357	-285.27	2538.6	100.5	-95.128	2587.6	75.3	-143.77	2595.4	68.121	-65.278	2710.3	50.83	-109.51	2690.1	35.985	-53.518
554	5.53	NaN	NaN	NaN	NaN	NaN	NaN	2777.5	1362.3	-120.88	2815.4	1214.8	-129.84	2725.9	1406.1	-334.49	2712.1	1382.1	76.33	2626.3	1346.5	5.7064	2823.9	928.17	-216.76	2777.8	929.03	-23.373	2644.7	961.5	-200.47	2626.6	971.63	-128.07	2775	996.54	-283.89	2711.1	999.27	5.8394	2890.3	700.18	-296.23	2856.1	732.77	-300.83	2861.5	680.7	-305.51	NaN	NaN	NaN	2969.2	512.13	-265.6	NaN	NaN	NaN	2714	646.52	-7.651	NaN	NaN	NaN	2676.1	680.55	-6.9735	2719.6	580.62	23.446	2747.8	463.62	-58.566	NaN	NaN	NaN	2905.5	344.05	-299.7	2951.6	378	-278.55	2904.3	389.02	-295.51	NaN	NaN	NaN	2863.9	106.45	-286.75	2876	113.36	-199.2	2684.6	325.98	-41.916	2719.4	360.44	-58.705	2674	377.63	-37.606	2682.2	250.71	-4.4792	2594.8	95.042	-61.074	2598.2	112.42	-147.78	2812	91.057	-242.54	2872.8	82.568	-204.6	2867	79.295	-282.73	2983.8	65.544	-239.33	2976.1	57.612	-283.63	2539.6	102	-95.472	2589.2	76.645	-143.86	2595	68.838	-65.745	2711.4	50.638	-109.19	2690.5	36.395	-53.944
555	5.54	NaN	NaN	NaN	NaN	NaN	NaN	2787.4	1361.8	-121.46	2824.3	1214	-130.02	2736.6	1405.7	-335.34	2721.7	1381.5	75.584	2635.9	1347	4.8296	2833.5	927.82	-216.36	2785.7	928.64	-23.34	2653.8	961.17	-200.7	2635.5	971.41	-129.35	2784.8	995.97	-283.95	2718.8	998.99	5.3014	2901.1	701.35	-295.23	2866.7	733.7	-300.36	2872.8	681.8	-304.96	NaN	NaN	NaN	2981.7	513.72	-264.27	NaN	NaN	NaN	2721.4	646.39	-8.2017	NaN	NaN	NaN	2682.4	679.65	-7.3503	2725	580.37	22.42	2752.9	462.8	-59.111	NaN	NaN	NaN	2927.4	342.6	-299.49	2971.2	379.13	-277.47	2923.7	387.49	-295.4	NaN	NaN	NaN	2897.1	103.67	-286.2	2907.9	110.84	-198.54	2688.5	326.16	-42.332	2723.4	360.07	-59.138	2678.9	378.11	-38.346	2684.6	250.57	-5.0795	2595.3	96.163	-61.139	2599.1	113.49	-148.08	2845.7	85.324	-242.52	2904.9	80.232	-203.97	2901.7	76.311	-281.96	3018.3	67.182	-237.44	3011.3	60.181	-282.17	2540.5	103.83	-95.911	2589.9	77.844	-144.04	2596.1	70.519	-65.61	2711.6	50.66	-109.34	2690.7	36.609	-54.121
556	5.55	NaN	NaN	NaN	NaN	NaN	NaN	2797.4	1361	-122.13	2833.6	1213.1	-130.3	2747.5	1405.1	-336.2	2731.1	1380.9	74.788	2645.5	1347.1	3.66	2843.2	927.36	-215.8	2793.7	928.18	-23.231	2663.5	960.91	-201.87	2644.3	971.43	-130.74	2794.9	995.32	-283.86	2726.7	999.01	4.8391	2911.6	702.19	-294.26	2877.2	734.36	-299.74	2883.4	682.52	-304.73	NaN	NaN	NaN	2993.5	514.93	-263.66	NaN	NaN	NaN	2727.8	645.86	-8.7299	NaN	NaN	NaN	2689.5	679.61	-8.6169	2733.5	580.58	22.383	2758.1	461.9	-59.674	NaN	NaN	NaN	2948.3	341.13	-299.18	2989.5	379.9	-276.34	2942.2	385.74	-295.59	NaN	NaN	NaN	2930.3	101.65	-285.49	2940.4	108.75	-196.64	2692.5	326.33	-42.747	2727.5	359.71	-59.571	2683.3	378.37	-38.542	2689.1	250.66	-5.1764	2595.8	97.351	-61.224	2600	114.49	-148.48	2879	79.785	-241.88	2939	77.937	-202.83	2936	74.19	-280.92	3051.8	69.284	-234.66	3046	62.581	-280.31	2541.3	105.53	-96.418	2590.3	78.969	-144.19	2596.2	71.567	-65.943	2711.8	50.683	-109.49	2690.3	35.689	-54.549
557	5.56	NaN	NaN	NaN	NaN	NaN	NaN	2807.4	1360.2	-122.77	2843.2	1212.2	-130.63	2758.5	1404.4	-337.09	2740.4	1380.1	73.885	2654.5	1345.8	2.4103	2853.1	926.83	-215.18	2801.8	927.59	-22.972	2673.2	959.96	-202.88	2653.2	970.78	-131.43	2805.2	994.5	-283.84	2734.6	998.8	4.4874	2921.7	702.55	-293.1	2887.4	734.68	-298.98	2893.7	683	-304.5	NaN	NaN	NaN	3004.8	515.71	-263.13	NaN	NaN	NaN	2734.1	645.16	-9.4049	NaN	NaN	NaN	2696	679	-8.9954	2739.8	579.93	22.158	2763.3	460.96	-60.146	NaN	NaN	NaN	2968.1	339.7	-298.69	3006.8	380.47	-275.62	2959.4	383.72	-295.18	NaN	NaN	NaN	2962.2	99.906	-284.03	2970.9	107.24	-195.18	2695.7	326.05	-43.327	2731.5	359.14	-59.987	2687.6	378.26	-38.614	2691.5	250.77	-5.9438	2596.9	98.844	-61.585	2600.8	115.52	-148.64	2911.7	75.671	-240.15	2970.5	75.925	-201.14	2969	72.256	-279.29	3085.4	72.757	-233.5	3078.9	65.978	-278.34	2542.1	107.84	-96.744	2591	80.052	-144.56	2596.4	72.872	-65.935	2712.1	50.755	-109.65	2690.5	35.892	-54.675
